<mxfile host="app.diagrams.net" agent="Mozilla/5.0 (Windows NT 10.0; Win64; x64) AppleWebKit/537.36 (KHTML, like Gecko) Chrome/118.0.0.0 Safari/537.36" version="28.0.4">
  <diagram name="第 1 页" id="dc2-r33TguPyWiVcOKK9">
    <mxGraphModel dx="1025" dy="447" grid="1" gridSize="10" guides="1" tooltips="1" connect="1" arrows="1" fold="1" page="1" pageScale="1" pageWidth="827" pageHeight="1169" math="0" shadow="0">
      <root>
        <mxCell id="0" />
        <mxCell id="1" parent="0" />
        <mxCell id="kNCC5GHauYCS-PRQPrdg-1" style="edgeStyle=orthogonalEdgeStyle;rounded=0;orthogonalLoop=1;jettySize=auto;html=1;exitX=0.5;exitY=1;exitDx=0;exitDy=0;" parent="1" edge="1">
          <mxGeometry relative="1" as="geometry">
            <mxPoint x="50" y="40" as="sourcePoint" />
            <mxPoint x="50" y="40" as="targetPoint" />
          </mxGeometry>
        </mxCell>
        <mxCell id="DWBvzNKrQwj72fAjb29S-2" style="edgeStyle=orthogonalEdgeStyle;rounded=0;orthogonalLoop=1;jettySize=auto;html=1;exitX=0.5;exitY=1;exitDx=0;exitDy=0;" edge="1" parent="1">
          <mxGeometry relative="1" as="geometry">
            <mxPoint x="301.6700000000001" y="110" as="sourcePoint" />
            <mxPoint x="301.6700000000001" y="110" as="targetPoint" />
          </mxGeometry>
        </mxCell>
        <mxCell id="DWBvzNKrQwj72fAjb29S-81" value="" style="group" vertex="1" connectable="0" parent="1">
          <mxGeometry x="170" y="130" width="348.36708881197274" height="388.3652150318817" as="geometry" />
        </mxCell>
        <mxCell id="DWBvzNKrQwj72fAjb29S-30" value="" style="endArrow=none;html=1;rounded=0;" edge="1" parent="DWBvzNKrQwj72fAjb29S-81">
          <mxGeometry width="50" height="50" relative="1" as="geometry">
            <mxPoint x="316.4754742440102" y="226.07017636684304" as="sourcePoint" />
            <mxPoint x="276.1795844530565" y="163.21303350970015" as="targetPoint" />
          </mxGeometry>
        </mxCell>
        <mxCell id="DWBvzNKrQwj72fAjb29S-65" value="" style="group" vertex="1" connectable="0" parent="DWBvzNKrQwj72fAjb29S-81">
          <mxGeometry x="56.20039037085232" y="114.85008818342152" width="48.36521503188172" height="48.36521503188169" as="geometry" />
        </mxCell>
        <mxCell id="DWBvzNKrQwj72fAjb29S-36" value="" style="ellipse;whiteSpace=wrap;html=1;aspect=fixed;fillColor=#CCFF99;" vertex="1" parent="DWBvzNKrQwj72fAjb29S-65">
          <mxGeometry width="48.36521503188169" height="48.36521503188169" as="geometry" />
        </mxCell>
        <mxCell id="DWBvzNKrQwj72fAjb29S-37" value="&lt;pre style=&quot;font-family: var(--ds-font-family-code); overflow: auto; padding: calc(var(--ds-md-zoom)*8px)calc(var(--ds-md-zoom)*12px); text-wrap: wrap; word-break: break-all; color: rgb(73, 73, 73); font-size: 12.573px; text-align: start; margin-top: 0px !important; margin-bottom: 0px !important;&quot;&gt;&lt;pre style=&quot;font-family: var(--ds-font-family-code); overflow: auto; padding: calc(var(--ds-md-zoom)*8px)calc(var(--ds-md-zoom)*12px); text-wrap: wrap; word-break: break-all; margin-top: 0px !important; margin-bottom: 0px !important;&quot;&gt;&lt;b&gt;3&lt;/b&gt;&lt;/pre&gt;&lt;/pre&gt;" style="text;strokeColor=none;align=center;fillColor=none;html=1;verticalAlign=middle;whiteSpace=wrap;rounded=0;" vertex="1" parent="DWBvzNKrQwj72fAjb29S-65">
          <mxGeometry x="18.719609629147698" y="16.999911816578475" width="10.92" height="14.36" as="geometry" />
        </mxCell>
        <mxCell id="DWBvzNKrQwj72fAjb29S-26" value="" style="endArrow=none;html=1;rounded=0;" edge="1" parent="DWBvzNKrQwj72fAjb29S-81">
          <mxGeometry width="50" height="50" relative="1" as="geometry">
            <mxPoint x="98.23931345647935" y="114.8520458553792" as="sourcePoint" />
            <mxPoint x="152.92889508076155" y="45.010776014109354" as="targetPoint" />
          </mxGeometry>
        </mxCell>
        <mxCell id="DWBvzNKrQwj72fAjb29S-27" value="" style="endArrow=none;html=1;rounded=0;" edge="1" parent="DWBvzNKrQwj72fAjb29S-81">
          <mxGeometry width="50" height="50" relative="1" as="geometry">
            <mxPoint x="251.64287262029364" y="114.85008818342152" as="sourcePoint" />
            <mxPoint x="195.22862691295865" y="42.68077601410934" as="targetPoint" />
          </mxGeometry>
        </mxCell>
        <mxCell id="DWBvzNKrQwj72fAjb29S-28" value="" style="endArrow=none;html=1;rounded=0;" edge="1" parent="DWBvzNKrQwj72fAjb29S-81">
          <mxGeometry width="50" height="50" relative="1" as="geometry">
            <mxPoint x="30.295889790953595" y="225.2941622574956" as="sourcePoint" />
            <mxPoint x="70.59177958190719" y="163.21303350970015" as="targetPoint" />
          </mxGeometry>
        </mxCell>
        <mxCell id="DWBvzNKrQwj72fAjb29S-31" value="" style="endArrow=none;html=1;rounded=0;" edge="1" parent="DWBvzNKrQwj72fAjb29S-81">
          <mxGeometry width="50" height="50" relative="1" as="geometry">
            <mxPoint x="130.29520324743294" y="226.07017636684304" as="sourcePoint" />
            <mxPoint x="89.99931345647934" y="163.21303350970015" as="targetPoint" />
          </mxGeometry>
        </mxCell>
        <mxCell id="DWBvzNKrQwj72fAjb29S-53" value="" style="endArrow=none;html=1;rounded=0;" edge="1" parent="DWBvzNKrQwj72fAjb29S-81">
          <mxGeometry width="50" height="50" relative="1" as="geometry">
            <mxPoint x="74.92000000000002" y="340.00112874779546" as="sourcePoint" />
            <mxPoint x="115.21588979095355" y="277.92" as="targetPoint" />
          </mxGeometry>
        </mxCell>
        <mxCell id="DWBvzNKrQwj72fAjb29S-54" value="" style="endArrow=none;html=1;rounded=0;" edge="1" parent="DWBvzNKrQwj72fAjb29S-81">
          <mxGeometry width="50" height="50" relative="1" as="geometry">
            <mxPoint x="177.6158897909536" y="340.9271428571429" as="sourcePoint" />
            <mxPoint x="137.32" y="278.07" as="targetPoint" />
          </mxGeometry>
        </mxCell>
        <mxCell id="DWBvzNKrQwj72fAjb29S-58" value="" style="endArrow=none;html=1;rounded=0;" edge="1" parent="DWBvzNKrQwj72fAjb29S-81">
          <mxGeometry width="50" height="50" relative="1" as="geometry">
            <mxPoint x="280" y="340.00112874779546" as="sourcePoint" />
            <mxPoint x="320.29588979095354" y="277.92" as="targetPoint" />
          </mxGeometry>
        </mxCell>
        <mxCell id="DWBvzNKrQwj72fAjb29S-64" value="" style="group" vertex="1" connectable="0" parent="DWBvzNKrQwj72fAjb29S-81">
          <mxGeometry x="148.88093689004552" width="48.36521503188169" height="48.36521503188169" as="geometry" />
        </mxCell>
        <mxCell id="DWBvzNKrQwj72fAjb29S-33" value="" style="ellipse;whiteSpace=wrap;html=1;aspect=fixed;fillColor=#E6FFCC;" vertex="1" parent="DWBvzNKrQwj72fAjb29S-64">
          <mxGeometry width="48.36521503188169" height="48.36521503188169" as="geometry" />
        </mxCell>
        <mxCell id="DWBvzNKrQwj72fAjb29S-34" value="&lt;pre style=&quot;font-family: var(--ds-font-family-code); overflow: auto; padding: calc(var(--ds-md-zoom)*8px)calc(var(--ds-md-zoom)*12px); text-wrap: wrap; word-break: break-all; color: rgb(73, 73, 73); font-size: 12.573px; text-align: start; margin-top: 0px !important; margin-bottom: 0px !important;&quot;&gt;&lt;pre style=&quot;font-family: var(--ds-font-family-code); overflow: auto; padding: calc(var(--ds-md-zoom)*8px)calc(var(--ds-md-zoom)*12px); text-wrap: wrap; word-break: break-all; margin-top: 0px !important; margin-bottom: 0px !important;&quot;&gt;&lt;b&gt;8&lt;/b&gt;&lt;/pre&gt;&lt;/pre&gt;" style="text;strokeColor=none;align=center;fillColor=none;html=1;verticalAlign=middle;whiteSpace=wrap;rounded=0;" vertex="1" parent="DWBvzNKrQwj72fAjb29S-64">
          <mxGeometry x="15.05906310995448" y="14.86999999999999" width="18.24" height="18.62" as="geometry" />
        </mxCell>
        <mxCell id="DWBvzNKrQwj72fAjb29S-66" value="" style="group" vertex="1" connectable="0" parent="DWBvzNKrQwj72fAjb29S-81">
          <mxGeometry x="241.56148340923886" y="114.85008818342152" width="48.36521503188169" height="48.36521503188169" as="geometry" />
        </mxCell>
        <mxCell id="DWBvzNKrQwj72fAjb29S-39" value="" style="ellipse;whiteSpace=wrap;html=1;aspect=fixed;fillColor=#CCFF99;" vertex="1" parent="DWBvzNKrQwj72fAjb29S-66">
          <mxGeometry width="48.36521503188169" height="48.36521503188169" as="geometry" />
        </mxCell>
        <mxCell id="DWBvzNKrQwj72fAjb29S-40" value="&lt;pre style=&quot;font-family: var(--ds-font-family-code); overflow: auto; padding: calc(var(--ds-md-zoom)*8px)calc(var(--ds-md-zoom)*12px); text-wrap: wrap; word-break: break-all; color: rgb(73, 73, 73); font-size: 12.573px; text-align: start; margin-top: 0px !important; margin-bottom: 0px !important;&quot;&gt;&lt;pre style=&quot;font-family: var(--ds-font-family-code); overflow: auto; padding: calc(var(--ds-md-zoom)*8px)calc(var(--ds-md-zoom)*12px); text-wrap: wrap; word-break: break-all; margin-top: 0px !important; margin-bottom: 0px !important;&quot;&gt;&lt;b&gt;10&lt;/b&gt;&lt;/pre&gt;&lt;/pre&gt;" style="text;strokeColor=none;align=center;fillColor=none;html=1;verticalAlign=middle;whiteSpace=wrap;rounded=0;" vertex="1" parent="DWBvzNKrQwj72fAjb29S-66">
          <mxGeometry x="13.73851659076115" y="16.39991181657848" width="20.88" height="15.57" as="geometry" />
        </mxCell>
        <mxCell id="DWBvzNKrQwj72fAjb29S-67" value="" style="group" vertex="1" connectable="0" parent="DWBvzNKrQwj72fAjb29S-81">
          <mxGeometry y="229.70017636684304" width="48.36521503188169" height="48.36521503188169" as="geometry" />
        </mxCell>
        <mxCell id="DWBvzNKrQwj72fAjb29S-42" value="" style="ellipse;whiteSpace=wrap;html=1;aspect=fixed;fillColor=#99FF33;" vertex="1" parent="DWBvzNKrQwj72fAjb29S-67">
          <mxGeometry width="48.36521503188169" height="48.36521503188169" as="geometry" />
        </mxCell>
        <mxCell id="DWBvzNKrQwj72fAjb29S-43" value="&lt;pre style=&quot;font-family: var(--ds-font-family-code); overflow: auto; padding: calc(var(--ds-md-zoom)*8px)calc(var(--ds-md-zoom)*12px); text-wrap: wrap; word-break: break-all; color: rgb(73, 73, 73); font-size: 12.573px; text-align: start; margin-top: 0px !important; margin-bottom: 0px !important;&quot;&gt;&lt;pre style=&quot;font-family: var(--ds-font-family-code); overflow: auto; padding: calc(var(--ds-md-zoom)*8px)calc(var(--ds-md-zoom)*12px); text-wrap: wrap; word-break: break-all; margin-top: 0px !important; margin-bottom: 0px !important;&quot;&gt;&lt;b&gt;1&lt;/b&gt;&lt;/pre&gt;&lt;/pre&gt;" style="text;strokeColor=none;align=center;fillColor=none;html=1;verticalAlign=middle;whiteSpace=wrap;rounded=0;" vertex="1" parent="DWBvzNKrQwj72fAjb29S-67">
          <mxGeometry x="20.620000000000005" y="19.429823633156957" width="7.12" height="9.51" as="geometry" />
        </mxCell>
        <mxCell id="DWBvzNKrQwj72fAjb29S-68" value="" style="group" vertex="1" connectable="0" parent="DWBvzNKrQwj72fAjb29S-81">
          <mxGeometry x="104.56070266753409" y="229.70017636684304" width="48.36521503188169" height="48.36521503188169" as="geometry" />
        </mxCell>
        <mxCell id="DWBvzNKrQwj72fAjb29S-45" value="" style="ellipse;whiteSpace=wrap;html=1;aspect=fixed;fillColor=#99FF33;" vertex="1" parent="DWBvzNKrQwj72fAjb29S-68">
          <mxGeometry width="48.36521503188169" height="48.36521503188169" as="geometry" />
        </mxCell>
        <mxCell id="DWBvzNKrQwj72fAjb29S-46" value="&lt;pre style=&quot;font-family: var(--ds-font-family-code); overflow: auto; padding: calc(var(--ds-md-zoom)*8px)calc(var(--ds-md-zoom)*12px); text-wrap: wrap; word-break: break-all; color: rgb(73, 73, 73); font-size: 12.573px; text-align: start; margin-top: 0px !important; margin-bottom: 0px !important;&quot;&gt;&lt;pre style=&quot;font-family: var(--ds-font-family-code); overflow: auto; padding: calc(var(--ds-md-zoom)*8px)calc(var(--ds-md-zoom)*12px); text-wrap: wrap; word-break: break-all; margin-top: 0px !important; margin-bottom: 0px !important;&quot;&gt;&lt;b&gt;6&lt;/b&gt;&lt;/pre&gt;&lt;/pre&gt;" style="text;strokeColor=none;align=center;fillColor=none;html=1;verticalAlign=middle;whiteSpace=wrap;rounded=0;" vertex="1" parent="DWBvzNKrQwj72fAjb29S-68">
          <mxGeometry x="15.439297332465912" y="18.069823633156943" width="17.48" height="12.23" as="geometry" />
        </mxCell>
        <mxCell id="DWBvzNKrQwj72fAjb29S-69" value="" style="group" vertex="1" connectable="0" parent="DWBvzNKrQwj72fAjb29S-81">
          <mxGeometry x="48.369999999999976" y="340" width="48.36521503188172" height="48.36521503188169" as="geometry" />
        </mxCell>
        <mxCell id="DWBvzNKrQwj72fAjb29S-56" value="" style="ellipse;whiteSpace=wrap;html=1;aspect=fixed;fillColor=#66CC00;" vertex="1" parent="DWBvzNKrQwj72fAjb29S-69">
          <mxGeometry width="48.36521503188169" height="48.36521503188169" as="geometry" />
        </mxCell>
        <mxCell id="DWBvzNKrQwj72fAjb29S-61" value="&lt;b&gt;4&lt;/b&gt;" style="text;strokeColor=none;align=center;fillColor=none;html=1;verticalAlign=middle;whiteSpace=wrap;rounded=0;" vertex="1" parent="DWBvzNKrQwj72fAjb29S-69">
          <mxGeometry x="19.180000000000035" y="19.180000000000007" width="10" height="10" as="geometry" />
        </mxCell>
        <mxCell id="DWBvzNKrQwj72fAjb29S-70" value="" style="group" vertex="1" connectable="0" parent="DWBvzNKrQwj72fAjb29S-81">
          <mxGeometry x="152.92999999999995" y="340" width="48.36521503188169" height="48.36521503188169" as="geometry" />
        </mxCell>
        <mxCell id="DWBvzNKrQwj72fAjb29S-57" value="" style="ellipse;whiteSpace=wrap;html=1;aspect=fixed;fillColor=#66CC00;" vertex="1" parent="DWBvzNKrQwj72fAjb29S-70">
          <mxGeometry width="48.36521503188169" height="48.36521503188169" as="geometry" />
        </mxCell>
        <mxCell id="DWBvzNKrQwj72fAjb29S-62" value="&lt;b&gt;7&lt;/b&gt;" style="text;strokeColor=none;align=center;fillColor=none;html=1;verticalAlign=middle;whiteSpace=wrap;rounded=0;" vertex="1" parent="DWBvzNKrQwj72fAjb29S-70">
          <mxGeometry x="19.250000000000057" y="19.180000000000007" width="10" height="10" as="geometry" />
        </mxCell>
        <mxCell id="DWBvzNKrQwj72fAjb29S-71" value="" style="group" vertex="1" connectable="0" parent="DWBvzNKrQwj72fAjb29S-81">
          <mxGeometry x="251.63999999999993" y="340" width="48.36521503188169" height="48.36521503188169" as="geometry" />
        </mxCell>
        <mxCell id="DWBvzNKrQwj72fAjb29S-59" value="" style="ellipse;whiteSpace=wrap;html=1;aspect=fixed;fillColor=#66CC00;" vertex="1" parent="DWBvzNKrQwj72fAjb29S-71">
          <mxGeometry width="48.36521503188169" height="48.36521503188169" as="geometry" />
        </mxCell>
        <mxCell id="DWBvzNKrQwj72fAjb29S-63" value="&lt;b&gt;13&lt;/b&gt;" style="text;strokeColor=none;align=center;fillColor=none;html=1;verticalAlign=middle;whiteSpace=wrap;rounded=0;" vertex="1" parent="DWBvzNKrQwj72fAjb29S-71">
          <mxGeometry x="19.180000000000064" y="19.180000000000007" width="10" height="10" as="geometry" />
        </mxCell>
        <mxCell id="DWBvzNKrQwj72fAjb29S-72" value="" style="group" vertex="1" connectable="0" parent="DWBvzNKrQwj72fAjb29S-81">
          <mxGeometry x="300.0018737800911" y="229.70017636684304" width="48.36521503188163" height="48.36521503188169" as="geometry" />
        </mxCell>
        <mxCell id="DWBvzNKrQwj72fAjb29S-51" value="" style="ellipse;whiteSpace=wrap;html=1;aspect=fixed;fillColor=#99FF33;" vertex="1" parent="DWBvzNKrQwj72fAjb29S-72">
          <mxGeometry width="48.36521503188169" height="48.36521503188169" as="geometry" />
        </mxCell>
        <mxCell id="DWBvzNKrQwj72fAjb29S-52" value="&lt;pre style=&quot;font-family: var(--ds-font-family-code); overflow: auto; padding: calc(var(--ds-md-zoom)*8px)calc(var(--ds-md-zoom)*12px); text-wrap: wrap; word-break: break-all; color: rgb(73, 73, 73); font-size: 12.573px; text-align: start; margin-top: 0px !important; margin-bottom: 0px !important;&quot;&gt;&lt;pre style=&quot;font-family: var(--ds-font-family-code); overflow: auto; padding: calc(var(--ds-md-zoom)*8px)calc(var(--ds-md-zoom)*12px); text-wrap: wrap; word-break: break-all; margin-top: 0px !important; margin-bottom: 0px !important;&quot;&gt;&lt;b&gt;14&lt;/b&gt;&lt;/pre&gt;&lt;/pre&gt;" style="text;strokeColor=none;align=center;fillColor=none;html=1;verticalAlign=middle;whiteSpace=wrap;rounded=0;" vertex="1" parent="DWBvzNKrQwj72fAjb29S-72">
          <mxGeometry x="14.49812621990884" y="14.429823633156957" width="19.36" height="19.51" as="geometry" />
        </mxCell>
        <mxCell id="DWBvzNKrQwj72fAjb29S-82" value="&lt;b&gt;二叉搜索树（BST）&lt;/b&gt;" style="text;strokeColor=none;align=center;fillColor=none;html=1;verticalAlign=middle;whiteSpace=wrap;rounded=0;" vertex="1" parent="1">
          <mxGeometry x="110" y="170" width="110" height="20" as="geometry" />
        </mxCell>
        <mxCell id="DWBvzNKrQwj72fAjb29S-124" value="" style="group" vertex="1" connectable="0" parent="1">
          <mxGeometry x="170" y="620" width="348.36708881197274" height="388.3652150318817" as="geometry" />
        </mxCell>
        <mxCell id="DWBvzNKrQwj72fAjb29S-84" value="" style="endArrow=none;html=1;rounded=0;" edge="1" parent="DWBvzNKrQwj72fAjb29S-124">
          <mxGeometry width="50" height="50" relative="1" as="geometry">
            <mxPoint x="316.4754742440102" y="226.07017636684304" as="sourcePoint" />
            <mxPoint x="276.1795844530565" y="163.21303350970015" as="targetPoint" />
          </mxGeometry>
        </mxCell>
        <mxCell id="DWBvzNKrQwj72fAjb29S-88" value="" style="endArrow=none;html=1;rounded=0;" edge="1" parent="DWBvzNKrQwj72fAjb29S-124">
          <mxGeometry width="50" height="50" relative="1" as="geometry">
            <mxPoint x="98.23931345647935" y="114.85204585537917" as="sourcePoint" />
            <mxPoint x="152.92889508076155" y="45.0107760141093" as="targetPoint" />
          </mxGeometry>
        </mxCell>
        <mxCell id="DWBvzNKrQwj72fAjb29S-89" value="" style="endArrow=none;html=1;rounded=0;" edge="1" parent="DWBvzNKrQwj72fAjb29S-124">
          <mxGeometry width="50" height="50" relative="1" as="geometry">
            <mxPoint x="251.64287262029364" y="114.85008818342158" as="sourcePoint" />
            <mxPoint x="195.22862691295865" y="42.68077601410937" as="targetPoint" />
          </mxGeometry>
        </mxCell>
        <mxCell id="DWBvzNKrQwj72fAjb29S-90" value="" style="endArrow=none;html=1;rounded=0;" edge="1" parent="DWBvzNKrQwj72fAjb29S-124">
          <mxGeometry width="50" height="50" relative="1" as="geometry">
            <mxPoint x="30.295889790953595" y="225.2941622574956" as="sourcePoint" />
            <mxPoint x="70.59177958190719" y="163.21303350970015" as="targetPoint" />
          </mxGeometry>
        </mxCell>
        <mxCell id="DWBvzNKrQwj72fAjb29S-91" value="" style="endArrow=none;html=1;rounded=0;" edge="1" parent="DWBvzNKrQwj72fAjb29S-124">
          <mxGeometry width="50" height="50" relative="1" as="geometry">
            <mxPoint x="130.29520324743294" y="226.07017636684304" as="sourcePoint" />
            <mxPoint x="89.99931345647934" y="163.21303350970015" as="targetPoint" />
          </mxGeometry>
        </mxCell>
        <mxCell id="DWBvzNKrQwj72fAjb29S-92" value="" style="endArrow=none;html=1;rounded=0;" edge="1" parent="DWBvzNKrQwj72fAjb29S-124">
          <mxGeometry width="50" height="50" relative="1" as="geometry">
            <mxPoint x="74.92000000000002" y="340.0011287477955" as="sourcePoint" />
            <mxPoint x="115.21588979095355" y="277.9200000000001" as="targetPoint" />
          </mxGeometry>
        </mxCell>
        <mxCell id="DWBvzNKrQwj72fAjb29S-93" value="" style="endArrow=none;html=1;rounded=0;" edge="1" parent="DWBvzNKrQwj72fAjb29S-124">
          <mxGeometry width="50" height="50" relative="1" as="geometry">
            <mxPoint x="177.6158897909536" y="340.9271428571428" as="sourcePoint" />
            <mxPoint x="137.32" y="278.06999999999994" as="targetPoint" />
          </mxGeometry>
        </mxCell>
        <mxCell id="DWBvzNKrQwj72fAjb29S-94" value="" style="endArrow=none;html=1;rounded=0;" edge="1" parent="DWBvzNKrQwj72fAjb29S-124">
          <mxGeometry width="50" height="50" relative="1" as="geometry">
            <mxPoint x="280" y="340.0011287477955" as="sourcePoint" />
            <mxPoint x="320.29588979095354" y="277.9200000000001" as="targetPoint" />
          </mxGeometry>
        </mxCell>
        <mxCell id="DWBvzNKrQwj72fAjb29S-98" value="" style="group" vertex="1" connectable="0" parent="DWBvzNKrQwj72fAjb29S-124">
          <mxGeometry x="241.56148340923886" y="114.85008818342158" width="48.36521503188169" height="48.36521503188169" as="geometry" />
        </mxCell>
        <mxCell id="DWBvzNKrQwj72fAjb29S-99" value="" style="ellipse;whiteSpace=wrap;html=1;aspect=fixed;fillColor=#CCFF99;" vertex="1" parent="DWBvzNKrQwj72fAjb29S-98">
          <mxGeometry width="48.36521503188169" height="48.36521503188169" as="geometry" />
        </mxCell>
        <mxCell id="DWBvzNKrQwj72fAjb29S-100" value="&lt;pre style=&quot;font-family: var(--ds-font-family-code); overflow: auto; padding: calc(var(--ds-md-zoom)*8px)calc(var(--ds-md-zoom)*12px); text-wrap: wrap; word-break: break-all; color: rgb(73, 73, 73); font-size: 12.573px; text-align: start; margin-top: 0px !important; margin-bottom: 0px !important;&quot;&gt;&lt;pre style=&quot;font-family: var(--ds-font-family-code); overflow: auto; padding: calc(var(--ds-md-zoom)*8px)calc(var(--ds-md-zoom)*12px); text-wrap: wrap; word-break: break-all; margin-top: 0px !important; margin-bottom: 0px !important;&quot;&gt;&lt;b&gt;10&lt;/b&gt;&lt;/pre&gt;&lt;/pre&gt;" style="text;strokeColor=none;align=center;fillColor=none;html=1;verticalAlign=middle;whiteSpace=wrap;rounded=0;" vertex="1" parent="DWBvzNKrQwj72fAjb29S-98">
          <mxGeometry x="13.73851659076115" y="16.39991181657848" width="20.88" height="15.57" as="geometry" />
        </mxCell>
        <mxCell id="DWBvzNKrQwj72fAjb29S-101" value="" style="group" vertex="1" connectable="0" parent="DWBvzNKrQwj72fAjb29S-124">
          <mxGeometry y="229.70017636684304" width="48.36521503188169" height="48.36521503188169" as="geometry" />
        </mxCell>
        <mxCell id="DWBvzNKrQwj72fAjb29S-102" value="" style="ellipse;whiteSpace=wrap;html=1;aspect=fixed;fillColor=#99FF33;" vertex="1" parent="DWBvzNKrQwj72fAjb29S-101">
          <mxGeometry width="48.36521503188169" height="48.36521503188169" as="geometry" />
        </mxCell>
        <mxCell id="DWBvzNKrQwj72fAjb29S-103" value="&lt;pre style=&quot;font-family: var(--ds-font-family-code); overflow: auto; padding: calc(var(--ds-md-zoom)*8px)calc(var(--ds-md-zoom)*12px); text-wrap: wrap; word-break: break-all; color: rgb(73, 73, 73); font-size: 12.573px; text-align: start; margin-top: 0px !important; margin-bottom: 0px !important;&quot;&gt;&lt;pre style=&quot;font-family: var(--ds-font-family-code); overflow: auto; padding: calc(var(--ds-md-zoom)*8px)calc(var(--ds-md-zoom)*12px); text-wrap: wrap; word-break: break-all; margin-top: 0px !important; margin-bottom: 0px !important;&quot;&gt;&lt;b&gt;1&lt;/b&gt;&lt;/pre&gt;&lt;/pre&gt;" style="text;strokeColor=none;align=center;fillColor=none;html=1;verticalAlign=middle;whiteSpace=wrap;rounded=0;" vertex="1" parent="DWBvzNKrQwj72fAjb29S-101">
          <mxGeometry x="20.620000000000005" y="19.429823633156957" width="7.12" height="9.51" as="geometry" />
        </mxCell>
        <mxCell id="DWBvzNKrQwj72fAjb29S-107" value="" style="group" vertex="1" connectable="0" parent="DWBvzNKrQwj72fAjb29S-124">
          <mxGeometry x="48.369999999999976" y="340" width="48.36521503188172" height="48.36521503188169" as="geometry" />
        </mxCell>
        <mxCell id="DWBvzNKrQwj72fAjb29S-108" value="" style="ellipse;whiteSpace=wrap;html=1;aspect=fixed;fillColor=#66CC00;" vertex="1" parent="DWBvzNKrQwj72fAjb29S-107">
          <mxGeometry width="48.36521503188169" height="48.36521503188169" as="geometry" />
        </mxCell>
        <mxCell id="DWBvzNKrQwj72fAjb29S-109" value="&lt;b&gt;4&lt;/b&gt;" style="text;strokeColor=none;align=center;fillColor=none;html=1;verticalAlign=middle;whiteSpace=wrap;rounded=0;" vertex="1" parent="DWBvzNKrQwj72fAjb29S-107">
          <mxGeometry x="19.180000000000035" y="19.180000000000007" width="10" height="10" as="geometry" />
        </mxCell>
        <mxCell id="DWBvzNKrQwj72fAjb29S-113" value="" style="group" vertex="1" connectable="0" parent="DWBvzNKrQwj72fAjb29S-124">
          <mxGeometry x="251.63999999999993" y="340" width="48.36521503188169" height="48.36521503188169" as="geometry" />
        </mxCell>
        <mxCell id="DWBvzNKrQwj72fAjb29S-114" value="" style="ellipse;whiteSpace=wrap;html=1;aspect=fixed;fillColor=#66CC00;" vertex="1" parent="DWBvzNKrQwj72fAjb29S-113">
          <mxGeometry width="48.36521503188169" height="48.36521503188169" as="geometry" />
        </mxCell>
        <mxCell id="DWBvzNKrQwj72fAjb29S-115" value="&lt;b&gt;13&lt;/b&gt;" style="text;strokeColor=none;align=center;fillColor=none;html=1;verticalAlign=middle;whiteSpace=wrap;rounded=0;" vertex="1" parent="DWBvzNKrQwj72fAjb29S-113">
          <mxGeometry x="19.180000000000064" y="19.180000000000007" width="10" height="10" as="geometry" />
        </mxCell>
        <mxCell id="DWBvzNKrQwj72fAjb29S-116" value="" style="group" vertex="1" connectable="0" parent="DWBvzNKrQwj72fAjb29S-124">
          <mxGeometry x="300.0018737800911" y="229.70017636684304" width="48.36521503188163" height="48.36521503188169" as="geometry" />
        </mxCell>
        <mxCell id="DWBvzNKrQwj72fAjb29S-117" value="" style="ellipse;whiteSpace=wrap;html=1;aspect=fixed;fillColor=#99FF33;" vertex="1" parent="DWBvzNKrQwj72fAjb29S-116">
          <mxGeometry width="48.36521503188169" height="48.36521503188169" as="geometry" />
        </mxCell>
        <mxCell id="DWBvzNKrQwj72fAjb29S-118" value="&lt;pre style=&quot;font-family: var(--ds-font-family-code); overflow: auto; padding: calc(var(--ds-md-zoom)*8px)calc(var(--ds-md-zoom)*12px); text-wrap: wrap; word-break: break-all; color: rgb(73, 73, 73); font-size: 12.573px; text-align: start; margin-top: 0px !important; margin-bottom: 0px !important;&quot;&gt;&lt;pre style=&quot;font-family: var(--ds-font-family-code); overflow: auto; padding: calc(var(--ds-md-zoom)*8px)calc(var(--ds-md-zoom)*12px); text-wrap: wrap; word-break: break-all; margin-top: 0px !important; margin-bottom: 0px !important;&quot;&gt;&lt;b&gt;14&lt;/b&gt;&lt;/pre&gt;&lt;/pre&gt;" style="text;strokeColor=none;align=center;fillColor=none;html=1;verticalAlign=middle;whiteSpace=wrap;rounded=0;" vertex="1" parent="DWBvzNKrQwj72fAjb29S-116">
          <mxGeometry x="14.49812621990884" y="14.429823633156957" width="19.36" height="19.51" as="geometry" />
        </mxCell>
        <mxCell id="DWBvzNKrQwj72fAjb29S-120" value="" style="group" vertex="1" connectable="0" parent="DWBvzNKrQwj72fAjb29S-124">
          <mxGeometry x="148.88093689004552" width="48.36521503188169" height="48.36521503188169" as="geometry" />
        </mxCell>
        <mxCell id="DWBvzNKrQwj72fAjb29S-96" value="" style="ellipse;whiteSpace=wrap;html=1;aspect=fixed;fillColor=#FFCCE6;" vertex="1" parent="DWBvzNKrQwj72fAjb29S-120">
          <mxGeometry width="48.36521503188169" height="48.36521503188169" as="geometry" />
        </mxCell>
        <mxCell id="DWBvzNKrQwj72fAjb29S-97" value="&lt;pre style=&quot;font-family: var(--ds-font-family-code); overflow: auto; padding: calc(var(--ds-md-zoom)*8px)calc(var(--ds-md-zoom)*12px); text-wrap: wrap; word-break: break-all; color: rgb(73, 73, 73); font-size: 12.573px; text-align: start; margin-top: 0px !important; margin-bottom: 0px !important;&quot;&gt;&lt;pre style=&quot;font-family: var(--ds-font-family-code); overflow: auto; padding: calc(var(--ds-md-zoom)*8px)calc(var(--ds-md-zoom)*12px); text-wrap: wrap; word-break: break-all; margin-top: 0px !important; margin-bottom: 0px !important;&quot;&gt;&lt;b&gt;8&lt;/b&gt;&lt;/pre&gt;&lt;/pre&gt;" style="text;strokeColor=none;align=center;fillColor=none;html=1;verticalAlign=middle;whiteSpace=wrap;rounded=0;" vertex="1" parent="DWBvzNKrQwj72fAjb29S-120">
          <mxGeometry x="15.05906310995448" y="14.870000000000005" width="18.24" height="18.62" as="geometry" />
        </mxCell>
        <mxCell id="DWBvzNKrQwj72fAjb29S-121" value="" style="group" vertex="1" connectable="0" parent="DWBvzNKrQwj72fAjb29S-124">
          <mxGeometry x="56.20039037085232" y="114.85008818342158" width="48.36521503188172" height="48.36521503188169" as="geometry" />
        </mxCell>
        <mxCell id="DWBvzNKrQwj72fAjb29S-86" value="" style="ellipse;whiteSpace=wrap;html=1;aspect=fixed;fillColor=#FFCCE6;" vertex="1" parent="DWBvzNKrQwj72fAjb29S-121">
          <mxGeometry width="48.36521503188169" height="48.36521503188169" as="geometry" />
        </mxCell>
        <mxCell id="DWBvzNKrQwj72fAjb29S-87" value="&lt;pre style=&quot;font-family: var(--ds-font-family-code); overflow: auto; padding: calc(var(--ds-md-zoom)*8px)calc(var(--ds-md-zoom)*12px); text-wrap: wrap; word-break: break-all; color: rgb(73, 73, 73); font-size: 12.573px; text-align: start; margin-top: 0px !important; margin-bottom: 0px !important;&quot;&gt;&lt;pre style=&quot;font-family: var(--ds-font-family-code); overflow: auto; padding: calc(var(--ds-md-zoom)*8px)calc(var(--ds-md-zoom)*12px); text-wrap: wrap; word-break: break-all; margin-top: 0px !important; margin-bottom: 0px !important;&quot;&gt;&lt;b&gt;3&lt;/b&gt;&lt;/pre&gt;&lt;/pre&gt;" style="text;strokeColor=none;align=center;fillColor=none;html=1;verticalAlign=middle;whiteSpace=wrap;rounded=0;" vertex="1" parent="DWBvzNKrQwj72fAjb29S-121">
          <mxGeometry x="18.719609629147698" y="16.999911816578447" width="10.92" height="14.36" as="geometry" />
        </mxCell>
        <mxCell id="DWBvzNKrQwj72fAjb29S-122" value="" style="group" vertex="1" connectable="0" parent="DWBvzNKrQwj72fAjb29S-124">
          <mxGeometry x="104.56070266753409" y="229.70017636684304" width="48.36521503188169" height="48.36521503188169" as="geometry" />
        </mxCell>
        <mxCell id="DWBvzNKrQwj72fAjb29S-105" value="" style="ellipse;whiteSpace=wrap;html=1;aspect=fixed;fillColor=#FFCCE6;" vertex="1" parent="DWBvzNKrQwj72fAjb29S-122">
          <mxGeometry width="48.36521503188169" height="48.36521503188169" as="geometry" />
        </mxCell>
        <mxCell id="DWBvzNKrQwj72fAjb29S-106" value="&lt;pre style=&quot;font-family: var(--ds-font-family-code); overflow: auto; padding: calc(var(--ds-md-zoom)*8px)calc(var(--ds-md-zoom)*12px); text-wrap: wrap; word-break: break-all; color: rgb(73, 73, 73); font-size: 12.573px; text-align: start; margin-top: 0px !important; margin-bottom: 0px !important;&quot;&gt;&lt;pre style=&quot;font-family: var(--ds-font-family-code); overflow: auto; padding: calc(var(--ds-md-zoom)*8px)calc(var(--ds-md-zoom)*12px); text-wrap: wrap; word-break: break-all; margin-top: 0px !important; margin-bottom: 0px !important;&quot;&gt;&lt;b&gt;6&lt;/b&gt;&lt;/pre&gt;&lt;/pre&gt;" style="text;strokeColor=none;align=center;fillColor=none;html=1;verticalAlign=middle;whiteSpace=wrap;rounded=0;" vertex="1" parent="DWBvzNKrQwj72fAjb29S-122">
          <mxGeometry x="15.439297332465912" y="18.069823633156943" width="17.48" height="12.23" as="geometry" />
        </mxCell>
        <mxCell id="DWBvzNKrQwj72fAjb29S-123" value="" style="group" vertex="1" connectable="0" parent="DWBvzNKrQwj72fAjb29S-124">
          <mxGeometry x="152.92999999999995" y="340" width="48.36521503188169" height="48.36521503188169" as="geometry" />
        </mxCell>
        <mxCell id="DWBvzNKrQwj72fAjb29S-111" value="" style="ellipse;whiteSpace=wrap;html=1;aspect=fixed;fillColor=#FFCCE6;" vertex="1" parent="DWBvzNKrQwj72fAjb29S-123">
          <mxGeometry width="48.36521503188169" height="48.36521503188169" as="geometry" />
        </mxCell>
        <mxCell id="DWBvzNKrQwj72fAjb29S-112" value="&lt;b&gt;7&lt;/b&gt;" style="text;strokeColor=none;align=center;fillColor=none;html=1;verticalAlign=middle;whiteSpace=wrap;rounded=0;" vertex="1" parent="DWBvzNKrQwj72fAjb29S-123">
          <mxGeometry x="19.250000000000057" y="19.180000000000064" width="10" height="10" as="geometry" />
        </mxCell>
        <mxCell id="DWBvzNKrQwj72fAjb29S-170" value="" style="group" vertex="1" connectable="0" parent="1">
          <mxGeometry x="170" y="1210" width="348.36708881197274" height="498.3652150318817" as="geometry" />
        </mxCell>
        <mxCell id="DWBvzNKrQwj72fAjb29S-126" value="" style="endArrow=none;html=1;rounded=0;" edge="1" parent="DWBvzNKrQwj72fAjb29S-170">
          <mxGeometry width="50" height="50" relative="1" as="geometry">
            <mxPoint x="316.4754742440102" y="226.07017636684304" as="sourcePoint" />
            <mxPoint x="276.1795844530565" y="163.21303350970015" as="targetPoint" />
          </mxGeometry>
        </mxCell>
        <mxCell id="DWBvzNKrQwj72fAjb29S-130" value="" style="endArrow=none;html=1;rounded=0;" edge="1" parent="DWBvzNKrQwj72fAjb29S-170">
          <mxGeometry width="50" height="50" relative="1" as="geometry">
            <mxPoint x="98.23931345647935" y="114.85204585537917" as="sourcePoint" />
            <mxPoint x="152.92889508076155" y="45.0107760141093" as="targetPoint" />
          </mxGeometry>
        </mxCell>
        <mxCell id="DWBvzNKrQwj72fAjb29S-131" value="" style="endArrow=none;html=1;rounded=0;" edge="1" parent="DWBvzNKrQwj72fAjb29S-170">
          <mxGeometry width="50" height="50" relative="1" as="geometry">
            <mxPoint x="251.64287262029364" y="114.85008818342158" as="sourcePoint" />
            <mxPoint x="195.22862691295865" y="42.68077601410937" as="targetPoint" />
          </mxGeometry>
        </mxCell>
        <mxCell id="DWBvzNKrQwj72fAjb29S-132" value="" style="endArrow=none;html=1;rounded=0;" edge="1" parent="DWBvzNKrQwj72fAjb29S-170">
          <mxGeometry width="50" height="50" relative="1" as="geometry">
            <mxPoint x="30.295889790953595" y="225.2941622574956" as="sourcePoint" />
            <mxPoint x="70.59177958190719" y="163.21303350970015" as="targetPoint" />
          </mxGeometry>
        </mxCell>
        <mxCell id="DWBvzNKrQwj72fAjb29S-133" value="" style="endArrow=none;html=1;rounded=0;" edge="1" parent="DWBvzNKrQwj72fAjb29S-170">
          <mxGeometry width="50" height="50" relative="1" as="geometry">
            <mxPoint x="130.29520324743294" y="226.07017636684304" as="sourcePoint" />
            <mxPoint x="89.99931345647934" y="163.21303350970015" as="targetPoint" />
          </mxGeometry>
        </mxCell>
        <mxCell id="DWBvzNKrQwj72fAjb29S-134" value="" style="endArrow=none;html=1;rounded=0;" edge="1" parent="DWBvzNKrQwj72fAjb29S-170">
          <mxGeometry width="50" height="50" relative="1" as="geometry">
            <mxPoint x="74.92000000000002" y="340.0011287477955" as="sourcePoint" />
            <mxPoint x="115.21588979095355" y="277.9200000000001" as="targetPoint" />
          </mxGeometry>
        </mxCell>
        <mxCell id="DWBvzNKrQwj72fAjb29S-135" value="" style="endArrow=none;html=1;rounded=0;" edge="1" parent="DWBvzNKrQwj72fAjb29S-170">
          <mxGeometry width="50" height="50" relative="1" as="geometry">
            <mxPoint x="177.6158897909536" y="340.9271428571428" as="sourcePoint" />
            <mxPoint x="137.32" y="278.06999999999994" as="targetPoint" />
          </mxGeometry>
        </mxCell>
        <mxCell id="DWBvzNKrQwj72fAjb29S-136" value="" style="endArrow=none;html=1;rounded=0;" edge="1" parent="DWBvzNKrQwj72fAjb29S-170">
          <mxGeometry width="50" height="50" relative="1" as="geometry">
            <mxPoint x="280" y="340.0011287477955" as="sourcePoint" />
            <mxPoint x="320.29588979095354" y="277.9200000000001" as="targetPoint" />
          </mxGeometry>
        </mxCell>
        <mxCell id="DWBvzNKrQwj72fAjb29S-140" value="" style="group" vertex="1" connectable="0" parent="DWBvzNKrQwj72fAjb29S-170">
          <mxGeometry x="241.56148340923886" y="114.85008818342158" width="48.36521503188169" height="48.36521503188169" as="geometry" />
        </mxCell>
        <mxCell id="DWBvzNKrQwj72fAjb29S-141" value="" style="ellipse;whiteSpace=wrap;html=1;aspect=fixed;fillColor=#CCFF99;" vertex="1" parent="DWBvzNKrQwj72fAjb29S-140">
          <mxGeometry width="48.36521503188169" height="48.36521503188169" as="geometry" />
        </mxCell>
        <mxCell id="DWBvzNKrQwj72fAjb29S-142" value="&lt;pre style=&quot;font-family: var(--ds-font-family-code); overflow: auto; padding: calc(var(--ds-md-zoom)*8px)calc(var(--ds-md-zoom)*12px); text-wrap: wrap; word-break: break-all; color: rgb(73, 73, 73); font-size: 12.573px; text-align: start; margin-top: 0px !important; margin-bottom: 0px !important;&quot;&gt;&lt;pre style=&quot;font-family: var(--ds-font-family-code); overflow: auto; padding: calc(var(--ds-md-zoom)*8px)calc(var(--ds-md-zoom)*12px); text-wrap: wrap; word-break: break-all; margin-top: 0px !important; margin-bottom: 0px !important;&quot;&gt;&lt;b&gt;10&lt;/b&gt;&lt;/pre&gt;&lt;/pre&gt;" style="text;strokeColor=none;align=center;fillColor=none;html=1;verticalAlign=middle;whiteSpace=wrap;rounded=0;" vertex="1" parent="DWBvzNKrQwj72fAjb29S-140">
          <mxGeometry x="13.73851659076115" y="16.39991181657848" width="20.88" height="15.57" as="geometry" />
        </mxCell>
        <mxCell id="DWBvzNKrQwj72fAjb29S-143" value="" style="group" vertex="1" connectable="0" parent="DWBvzNKrQwj72fAjb29S-170">
          <mxGeometry y="229.70017636684315" width="48.36521503188169" height="48.36521503188169" as="geometry" />
        </mxCell>
        <mxCell id="DWBvzNKrQwj72fAjb29S-144" value="" style="ellipse;whiteSpace=wrap;html=1;aspect=fixed;fillColor=#99FF33;" vertex="1" parent="DWBvzNKrQwj72fAjb29S-143">
          <mxGeometry width="48.36521503188169" height="48.36521503188169" as="geometry" />
        </mxCell>
        <mxCell id="DWBvzNKrQwj72fAjb29S-145" value="&lt;pre style=&quot;font-family: var(--ds-font-family-code); overflow: auto; padding: calc(var(--ds-md-zoom)*8px)calc(var(--ds-md-zoom)*12px); text-wrap: wrap; word-break: break-all; color: rgb(73, 73, 73); font-size: 12.573px; text-align: start; margin-top: 0px !important; margin-bottom: 0px !important;&quot;&gt;&lt;pre style=&quot;font-family: var(--ds-font-family-code); overflow: auto; padding: calc(var(--ds-md-zoom)*8px)calc(var(--ds-md-zoom)*12px); text-wrap: wrap; word-break: break-all; margin-top: 0px !important; margin-bottom: 0px !important;&quot;&gt;&lt;b&gt;1&lt;/b&gt;&lt;/pre&gt;&lt;/pre&gt;" style="text;strokeColor=none;align=center;fillColor=none;html=1;verticalAlign=middle;whiteSpace=wrap;rounded=0;" vertex="1" parent="DWBvzNKrQwj72fAjb29S-143">
          <mxGeometry x="20.620000000000005" y="19.429823633156957" width="7.12" height="9.51" as="geometry" />
        </mxCell>
        <mxCell id="DWBvzNKrQwj72fAjb29S-152" value="" style="group" vertex="1" connectable="0" parent="DWBvzNKrQwj72fAjb29S-170">
          <mxGeometry x="152.92999999999995" y="340" width="48.36521503188169" height="48.36521503188169" as="geometry" />
        </mxCell>
        <mxCell id="DWBvzNKrQwj72fAjb29S-153" value="" style="ellipse;whiteSpace=wrap;html=1;aspect=fixed;fillColor=#66CC00;" vertex="1" parent="DWBvzNKrQwj72fAjb29S-152">
          <mxGeometry width="48.36521503188169" height="48.36521503188169" as="geometry" />
        </mxCell>
        <mxCell id="DWBvzNKrQwj72fAjb29S-154" value="&lt;b&gt;7&lt;/b&gt;" style="text;strokeColor=none;align=center;fillColor=none;html=1;verticalAlign=middle;whiteSpace=wrap;rounded=0;" vertex="1" parent="DWBvzNKrQwj72fAjb29S-152">
          <mxGeometry x="19.250000000000057" y="19.180000000000007" width="10" height="10" as="geometry" />
        </mxCell>
        <mxCell id="DWBvzNKrQwj72fAjb29S-155" value="" style="group" vertex="1" connectable="0" parent="DWBvzNKrQwj72fAjb29S-170">
          <mxGeometry x="251.63999999999993" y="340" width="48.36521503188169" height="48.36521503188169" as="geometry" />
        </mxCell>
        <mxCell id="DWBvzNKrQwj72fAjb29S-156" value="" style="ellipse;whiteSpace=wrap;html=1;aspect=fixed;fillColor=#66CC00;" vertex="1" parent="DWBvzNKrQwj72fAjb29S-155">
          <mxGeometry width="48.36521503188169" height="48.36521503188169" as="geometry" />
        </mxCell>
        <mxCell id="DWBvzNKrQwj72fAjb29S-157" value="&lt;b&gt;13&lt;/b&gt;" style="text;strokeColor=none;align=center;fillColor=none;html=1;verticalAlign=middle;whiteSpace=wrap;rounded=0;" vertex="1" parent="DWBvzNKrQwj72fAjb29S-155">
          <mxGeometry x="19.180000000000064" y="19.180000000000007" width="10" height="10" as="geometry" />
        </mxCell>
        <mxCell id="DWBvzNKrQwj72fAjb29S-158" value="" style="group" vertex="1" connectable="0" parent="DWBvzNKrQwj72fAjb29S-170">
          <mxGeometry x="300.0018737800911" y="229.70017636684315" width="48.36521503188163" height="48.36521503188169" as="geometry" />
        </mxCell>
        <mxCell id="DWBvzNKrQwj72fAjb29S-159" value="" style="ellipse;whiteSpace=wrap;html=1;aspect=fixed;fillColor=#99FF33;" vertex="1" parent="DWBvzNKrQwj72fAjb29S-158">
          <mxGeometry width="48.36521503188169" height="48.36521503188169" as="geometry" />
        </mxCell>
        <mxCell id="DWBvzNKrQwj72fAjb29S-160" value="&lt;pre style=&quot;font-family: var(--ds-font-family-code); overflow: auto; padding: calc(var(--ds-md-zoom)*8px)calc(var(--ds-md-zoom)*12px); text-wrap: wrap; word-break: break-all; color: rgb(73, 73, 73); font-size: 12.573px; text-align: start; margin-top: 0px !important; margin-bottom: 0px !important;&quot;&gt;&lt;pre style=&quot;font-family: var(--ds-font-family-code); overflow: auto; padding: calc(var(--ds-md-zoom)*8px)calc(var(--ds-md-zoom)*12px); text-wrap: wrap; word-break: break-all; margin-top: 0px !important; margin-bottom: 0px !important;&quot;&gt;&lt;b&gt;14&lt;/b&gt;&lt;/pre&gt;&lt;/pre&gt;" style="text;strokeColor=none;align=center;fillColor=none;html=1;verticalAlign=middle;whiteSpace=wrap;rounded=0;" vertex="1" parent="DWBvzNKrQwj72fAjb29S-158">
          <mxGeometry x="14.49812621990884" y="14.429823633156957" width="19.36" height="19.51" as="geometry" />
        </mxCell>
        <mxCell id="DWBvzNKrQwj72fAjb29S-164" value="" style="endArrow=none;html=1;rounded=0;" edge="1" parent="DWBvzNKrQwj72fAjb29S-170">
          <mxGeometry width="50" height="50" relative="1" as="geometry">
            <mxPoint x="120.2958897909536" y="451.227142857143" as="sourcePoint" />
            <mxPoint x="80" y="388.3700000000001" as="targetPoint" />
          </mxGeometry>
        </mxCell>
        <mxCell id="DWBvzNKrQwj72fAjb29S-165" value="" style="group" vertex="1" connectable="0" parent="DWBvzNKrQwj72fAjb29S-170">
          <mxGeometry x="148.88093689004552" width="48.36521503188169" height="48.36521503188169" as="geometry" />
        </mxCell>
        <mxCell id="DWBvzNKrQwj72fAjb29S-138" value="" style="ellipse;whiteSpace=wrap;html=1;aspect=fixed;fillColor=#FFCCE6;" vertex="1" parent="DWBvzNKrQwj72fAjb29S-165">
          <mxGeometry width="48.36521503188169" height="48.36521503188169" as="geometry" />
        </mxCell>
        <mxCell id="DWBvzNKrQwj72fAjb29S-139" value="&lt;pre style=&quot;font-family: var(--ds-font-family-code); overflow: auto; padding: calc(var(--ds-md-zoom)*8px)calc(var(--ds-md-zoom)*12px); text-wrap: wrap; word-break: break-all; color: rgb(73, 73, 73); font-size: 12.573px; text-align: start; margin-top: 0px !important; margin-bottom: 0px !important;&quot;&gt;&lt;pre style=&quot;font-family: var(--ds-font-family-code); overflow: auto; padding: calc(var(--ds-md-zoom)*8px)calc(var(--ds-md-zoom)*12px); text-wrap: wrap; word-break: break-all; margin-top: 0px !important; margin-bottom: 0px !important;&quot;&gt;&lt;b&gt;8&lt;/b&gt;&lt;/pre&gt;&lt;/pre&gt;" style="text;strokeColor=none;align=center;fillColor=none;html=1;verticalAlign=middle;whiteSpace=wrap;rounded=0;" vertex="1" parent="DWBvzNKrQwj72fAjb29S-165">
          <mxGeometry x="15.05906310995448" y="14.86999999999989" width="18.24" height="18.62" as="geometry" />
        </mxCell>
        <mxCell id="DWBvzNKrQwj72fAjb29S-166" value="" style="group" vertex="1" connectable="0" parent="DWBvzNKrQwj72fAjb29S-170">
          <mxGeometry x="56.20039037085232" y="114.85008818342158" width="48.36521503188172" height="48.36521503188169" as="geometry" />
        </mxCell>
        <mxCell id="DWBvzNKrQwj72fAjb29S-128" value="" style="ellipse;whiteSpace=wrap;html=1;aspect=fixed;fillColor=#FFCCE6;" vertex="1" parent="DWBvzNKrQwj72fAjb29S-166">
          <mxGeometry width="48.36521503188169" height="48.36521503188169" as="geometry" />
        </mxCell>
        <mxCell id="DWBvzNKrQwj72fAjb29S-129" value="&lt;pre style=&quot;font-family: var(--ds-font-family-code); overflow: auto; padding: calc(var(--ds-md-zoom)*8px)calc(var(--ds-md-zoom)*12px); text-wrap: wrap; word-break: break-all; color: rgb(73, 73, 73); font-size: 12.573px; text-align: start; margin-top: 0px !important; margin-bottom: 0px !important;&quot;&gt;&lt;pre style=&quot;font-family: var(--ds-font-family-code); overflow: auto; padding: calc(var(--ds-md-zoom)*8px)calc(var(--ds-md-zoom)*12px); text-wrap: wrap; word-break: break-all; margin-top: 0px !important; margin-bottom: 0px !important;&quot;&gt;&lt;b&gt;3&lt;/b&gt;&lt;/pre&gt;&lt;/pre&gt;" style="text;strokeColor=none;align=center;fillColor=none;html=1;verticalAlign=middle;whiteSpace=wrap;rounded=0;" vertex="1" parent="DWBvzNKrQwj72fAjb29S-166">
          <mxGeometry x="18.719609629147698" y="16.99991181657856" width="10.92" height="14.36" as="geometry" />
        </mxCell>
        <mxCell id="DWBvzNKrQwj72fAjb29S-167" value="" style="group" vertex="1" connectable="0" parent="DWBvzNKrQwj72fAjb29S-170">
          <mxGeometry x="104.56070266753409" y="229.70017636684315" width="48.36521503188169" height="48.36521503188169" as="geometry" />
        </mxCell>
        <mxCell id="DWBvzNKrQwj72fAjb29S-147" value="" style="ellipse;whiteSpace=wrap;html=1;aspect=fixed;fillColor=#FFCCE6;" vertex="1" parent="DWBvzNKrQwj72fAjb29S-167">
          <mxGeometry width="48.36521503188169" height="48.36521503188169" as="geometry" />
        </mxCell>
        <mxCell id="DWBvzNKrQwj72fAjb29S-148" value="&lt;pre style=&quot;font-family: var(--ds-font-family-code); overflow: auto; padding: calc(var(--ds-md-zoom)*8px)calc(var(--ds-md-zoom)*12px); text-wrap: wrap; word-break: break-all; color: rgb(73, 73, 73); font-size: 12.573px; text-align: start; margin-top: 0px !important; margin-bottom: 0px !important;&quot;&gt;&lt;pre style=&quot;font-family: var(--ds-font-family-code); overflow: auto; padding: calc(var(--ds-md-zoom)*8px)calc(var(--ds-md-zoom)*12px); text-wrap: wrap; word-break: break-all; margin-top: 0px !important; margin-bottom: 0px !important;&quot;&gt;&lt;b&gt;6&lt;/b&gt;&lt;/pre&gt;&lt;/pre&gt;" style="text;strokeColor=none;align=center;fillColor=none;html=1;verticalAlign=middle;whiteSpace=wrap;rounded=0;" vertex="1" parent="DWBvzNKrQwj72fAjb29S-167">
          <mxGeometry x="15.439297332465912" y="18.06982363315683" width="17.48" height="12.23" as="geometry" />
        </mxCell>
        <mxCell id="DWBvzNKrQwj72fAjb29S-168" value="" style="group" vertex="1" connectable="0" parent="DWBvzNKrQwj72fAjb29S-170">
          <mxGeometry x="48.369999999999976" y="340" width="48.36521503188172" height="48.36521503188169" as="geometry" />
        </mxCell>
        <mxCell id="DWBvzNKrQwj72fAjb29S-150" value="" style="ellipse;whiteSpace=wrap;html=1;aspect=fixed;fillColor=#FFCCE6;" vertex="1" parent="DWBvzNKrQwj72fAjb29S-168">
          <mxGeometry width="48.36521503188169" height="48.36521503188169" as="geometry" />
        </mxCell>
        <mxCell id="DWBvzNKrQwj72fAjb29S-151" value="&lt;b&gt;4&lt;/b&gt;" style="text;strokeColor=none;align=center;fillColor=none;html=1;verticalAlign=middle;whiteSpace=wrap;rounded=0;" vertex="1" parent="DWBvzNKrQwj72fAjb29S-168">
          <mxGeometry x="19.180000000000035" y="19.180000000000064" width="10" height="10" as="geometry" />
        </mxCell>
        <mxCell id="DWBvzNKrQwj72fAjb29S-169" value="" style="group" vertex="1" connectable="0" parent="DWBvzNKrQwj72fAjb29S-170">
          <mxGeometry x="100" y="450" width="48.36521503188169" height="48.36521503188169" as="geometry" />
        </mxCell>
        <mxCell id="DWBvzNKrQwj72fAjb29S-162" value="" style="ellipse;whiteSpace=wrap;html=1;aspect=fixed;fillColor=#FFCCE6;" vertex="1" parent="DWBvzNKrQwj72fAjb29S-169">
          <mxGeometry width="48.36521503188169" height="48.36521503188169" as="geometry" />
        </mxCell>
        <mxCell id="DWBvzNKrQwj72fAjb29S-163" value="&lt;b&gt;5&lt;/b&gt;" style="text;strokeColor=none;align=center;fillColor=none;html=1;verticalAlign=middle;whiteSpace=wrap;rounded=0;" vertex="1" parent="DWBvzNKrQwj72fAjb29S-169">
          <mxGeometry x="19.180000000000064" y="19.180000000000064" width="10" height="10" as="geometry" />
        </mxCell>
        <mxCell id="DWBvzNKrQwj72fAjb29S-119" value="&lt;b&gt;图解查找 7&lt;/b&gt;" style="text;strokeColor=none;align=center;fillColor=none;html=1;verticalAlign=middle;whiteSpace=wrap;rounded=0;" vertex="1" parent="1">
          <mxGeometry x="120" y="690" width="60" height="20" as="geometry" />
        </mxCell>
        <mxCell id="DWBvzNKrQwj72fAjb29S-171" value="&lt;b&gt;图解插入5&lt;/b&gt;" style="text;strokeColor=none;align=center;fillColor=none;html=1;verticalAlign=middle;whiteSpace=wrap;rounded=0;" vertex="1" parent="1">
          <mxGeometry x="120" y="1270" width="60" height="20" as="geometry" />
        </mxCell>
        <mxCell id="DWBvzNKrQwj72fAjb29S-211" value="" style="group" vertex="1" connectable="0" parent="1">
          <mxGeometry x="250" y="1800" width="348.36708881197274" height="388.3652150318817" as="geometry" />
        </mxCell>
        <mxCell id="DWBvzNKrQwj72fAjb29S-173" value="" style="endArrow=none;html=1;rounded=0;" edge="1" parent="DWBvzNKrQwj72fAjb29S-211">
          <mxGeometry width="50" height="50" relative="1" as="geometry">
            <mxPoint x="316.4754742440102" y="226.07017636684304" as="sourcePoint" />
            <mxPoint x="276.1795844530565" y="163.21303350970015" as="targetPoint" />
          </mxGeometry>
        </mxCell>
        <mxCell id="DWBvzNKrQwj72fAjb29S-177" value="" style="endArrow=none;html=1;rounded=0;" edge="1" parent="DWBvzNKrQwj72fAjb29S-211">
          <mxGeometry width="50" height="50" relative="1" as="geometry">
            <mxPoint x="98.23931345647935" y="114.85204585537917" as="sourcePoint" />
            <mxPoint x="152.92889508076155" y="45.0107760141093" as="targetPoint" />
          </mxGeometry>
        </mxCell>
        <mxCell id="DWBvzNKrQwj72fAjb29S-178" value="" style="endArrow=none;html=1;rounded=0;" edge="1" parent="DWBvzNKrQwj72fAjb29S-211">
          <mxGeometry width="50" height="50" relative="1" as="geometry">
            <mxPoint x="251.64287262029364" y="114.85008818342158" as="sourcePoint" />
            <mxPoint x="195.22862691295865" y="42.68077601410937" as="targetPoint" />
          </mxGeometry>
        </mxCell>
        <mxCell id="DWBvzNKrQwj72fAjb29S-179" value="" style="endArrow=none;html=1;rounded=0;" edge="1" parent="DWBvzNKrQwj72fAjb29S-211">
          <mxGeometry width="50" height="50" relative="1" as="geometry">
            <mxPoint x="30.295889790953595" y="225.2941622574956" as="sourcePoint" />
            <mxPoint x="70.59177958190719" y="163.21303350970015" as="targetPoint" />
          </mxGeometry>
        </mxCell>
        <mxCell id="DWBvzNKrQwj72fAjb29S-180" value="" style="endArrow=none;html=1;rounded=0;" edge="1" parent="DWBvzNKrQwj72fAjb29S-211">
          <mxGeometry width="50" height="50" relative="1" as="geometry">
            <mxPoint x="130.29520324743294" y="226.07017636684304" as="sourcePoint" />
            <mxPoint x="89.99931345647934" y="163.21303350970015" as="targetPoint" />
          </mxGeometry>
        </mxCell>
        <mxCell id="DWBvzNKrQwj72fAjb29S-181" value="" style="endArrow=none;html=1;rounded=0;" edge="1" parent="DWBvzNKrQwj72fAjb29S-211">
          <mxGeometry width="50" height="50" relative="1" as="geometry">
            <mxPoint x="74.92000000000002" y="340.0011287477955" as="sourcePoint" />
            <mxPoint x="115.21588979095355" y="277.9200000000001" as="targetPoint" />
          </mxGeometry>
        </mxCell>
        <mxCell id="DWBvzNKrQwj72fAjb29S-183" value="" style="endArrow=none;html=1;rounded=0;" edge="1" parent="DWBvzNKrQwj72fAjb29S-211">
          <mxGeometry width="50" height="50" relative="1" as="geometry">
            <mxPoint x="280" y="340.0011287477955" as="sourcePoint" />
            <mxPoint x="320.29588979095354" y="277.9200000000001" as="targetPoint" />
          </mxGeometry>
        </mxCell>
        <mxCell id="DWBvzNKrQwj72fAjb29S-187" value="" style="group" vertex="1" connectable="0" parent="DWBvzNKrQwj72fAjb29S-211">
          <mxGeometry x="241.56148340923886" y="114.85008818342158" width="48.36521503188169" height="48.36521503188169" as="geometry" />
        </mxCell>
        <mxCell id="DWBvzNKrQwj72fAjb29S-188" value="" style="ellipse;whiteSpace=wrap;html=1;aspect=fixed;fillColor=#CCFF99;" vertex="1" parent="DWBvzNKrQwj72fAjb29S-187">
          <mxGeometry width="48.36521503188169" height="48.36521503188169" as="geometry" />
        </mxCell>
        <mxCell id="DWBvzNKrQwj72fAjb29S-189" value="&lt;pre style=&quot;font-family: var(--ds-font-family-code); overflow: auto; padding: calc(var(--ds-md-zoom)*8px)calc(var(--ds-md-zoom)*12px); text-wrap: wrap; word-break: break-all; color: rgb(73, 73, 73); font-size: 12.573px; text-align: start; margin-top: 0px !important; margin-bottom: 0px !important;&quot;&gt;&lt;pre style=&quot;font-family: var(--ds-font-family-code); overflow: auto; padding: calc(var(--ds-md-zoom)*8px)calc(var(--ds-md-zoom)*12px); text-wrap: wrap; word-break: break-all; margin-top: 0px !important; margin-bottom: 0px !important;&quot;&gt;&lt;b&gt;10&lt;/b&gt;&lt;/pre&gt;&lt;/pre&gt;" style="text;strokeColor=none;align=center;fillColor=none;html=1;verticalAlign=middle;whiteSpace=wrap;rounded=0;" vertex="1" parent="DWBvzNKrQwj72fAjb29S-187">
          <mxGeometry x="13.73851659076115" y="16.39991181657848" width="20.88" height="15.57" as="geometry" />
        </mxCell>
        <mxCell id="DWBvzNKrQwj72fAjb29S-190" value="" style="group" vertex="1" connectable="0" parent="DWBvzNKrQwj72fAjb29S-211">
          <mxGeometry y="229.70017636684315" width="48.36521503188169" height="48.36521503188169" as="geometry" />
        </mxCell>
        <mxCell id="DWBvzNKrQwj72fAjb29S-191" value="" style="ellipse;whiteSpace=wrap;html=1;aspect=fixed;fillColor=#99FF33;" vertex="1" parent="DWBvzNKrQwj72fAjb29S-190">
          <mxGeometry width="48.36521503188169" height="48.36521503188169" as="geometry" />
        </mxCell>
        <mxCell id="DWBvzNKrQwj72fAjb29S-192" value="&lt;pre style=&quot;font-family: var(--ds-font-family-code); overflow: auto; padding: calc(var(--ds-md-zoom)*8px)calc(var(--ds-md-zoom)*12px); text-wrap: wrap; word-break: break-all; color: rgb(73, 73, 73); font-size: 12.573px; text-align: start; margin-top: 0px !important; margin-bottom: 0px !important;&quot;&gt;&lt;pre style=&quot;font-family: var(--ds-font-family-code); overflow: auto; padding: calc(var(--ds-md-zoom)*8px)calc(var(--ds-md-zoom)*12px); text-wrap: wrap; word-break: break-all; margin-top: 0px !important; margin-bottom: 0px !important;&quot;&gt;&lt;b&gt;1&lt;/b&gt;&lt;/pre&gt;&lt;/pre&gt;" style="text;strokeColor=none;align=center;fillColor=none;html=1;verticalAlign=middle;whiteSpace=wrap;rounded=0;" vertex="1" parent="DWBvzNKrQwj72fAjb29S-190">
          <mxGeometry x="20.620000000000005" y="19.429823633156957" width="7.12" height="9.51" as="geometry" />
        </mxCell>
        <mxCell id="DWBvzNKrQwj72fAjb29S-196" value="" style="group" vertex="1" connectable="0" parent="DWBvzNKrQwj72fAjb29S-211">
          <mxGeometry x="48.369999999999976" y="340" width="48.36521503188172" height="48.36521503188169" as="geometry" />
        </mxCell>
        <mxCell id="DWBvzNKrQwj72fAjb29S-197" value="" style="ellipse;whiteSpace=wrap;html=1;aspect=fixed;fillColor=#66CC00;" vertex="1" parent="DWBvzNKrQwj72fAjb29S-196">
          <mxGeometry width="48.36521503188169" height="48.36521503188169" as="geometry" />
        </mxCell>
        <mxCell id="DWBvzNKrQwj72fAjb29S-198" value="&lt;b&gt;4&lt;/b&gt;" style="text;strokeColor=none;align=center;fillColor=none;html=1;verticalAlign=middle;whiteSpace=wrap;rounded=0;" vertex="1" parent="DWBvzNKrQwj72fAjb29S-196">
          <mxGeometry x="19.180000000000035" y="19.180000000000007" width="10" height="10" as="geometry" />
        </mxCell>
        <mxCell id="DWBvzNKrQwj72fAjb29S-202" value="" style="group" vertex="1" connectable="0" parent="DWBvzNKrQwj72fAjb29S-211">
          <mxGeometry x="251.63999999999993" y="340" width="48.36521503188169" height="48.36521503188169" as="geometry" />
        </mxCell>
        <mxCell id="DWBvzNKrQwj72fAjb29S-203" value="" style="ellipse;whiteSpace=wrap;html=1;aspect=fixed;fillColor=#66CC00;" vertex="1" parent="DWBvzNKrQwj72fAjb29S-202">
          <mxGeometry width="48.36521503188169" height="48.36521503188169" as="geometry" />
        </mxCell>
        <mxCell id="DWBvzNKrQwj72fAjb29S-204" value="&lt;b&gt;13&lt;/b&gt;" style="text;strokeColor=none;align=center;fillColor=none;html=1;verticalAlign=middle;whiteSpace=wrap;rounded=0;" vertex="1" parent="DWBvzNKrQwj72fAjb29S-202">
          <mxGeometry x="19.180000000000064" y="19.180000000000007" width="10" height="10" as="geometry" />
        </mxCell>
        <mxCell id="DWBvzNKrQwj72fAjb29S-205" value="" style="group" vertex="1" connectable="0" parent="DWBvzNKrQwj72fAjb29S-211">
          <mxGeometry x="300.0018737800911" y="229.70017636684315" width="48.36521503188163" height="48.36521503188169" as="geometry" />
        </mxCell>
        <mxCell id="DWBvzNKrQwj72fAjb29S-206" value="" style="ellipse;whiteSpace=wrap;html=1;aspect=fixed;fillColor=#99FF33;" vertex="1" parent="DWBvzNKrQwj72fAjb29S-205">
          <mxGeometry width="48.36521503188169" height="48.36521503188169" as="geometry" />
        </mxCell>
        <mxCell id="DWBvzNKrQwj72fAjb29S-207" value="&lt;pre style=&quot;font-family: var(--ds-font-family-code); overflow: auto; padding: calc(var(--ds-md-zoom)*8px)calc(var(--ds-md-zoom)*12px); text-wrap: wrap; word-break: break-all; color: rgb(73, 73, 73); font-size: 12.573px; text-align: start; margin-top: 0px !important; margin-bottom: 0px !important;&quot;&gt;&lt;pre style=&quot;font-family: var(--ds-font-family-code); overflow: auto; padding: calc(var(--ds-md-zoom)*8px)calc(var(--ds-md-zoom)*12px); text-wrap: wrap; word-break: break-all; margin-top: 0px !important; margin-bottom: 0px !important;&quot;&gt;&lt;b&gt;14&lt;/b&gt;&lt;/pre&gt;&lt;/pre&gt;" style="text;strokeColor=none;align=center;fillColor=none;html=1;verticalAlign=middle;whiteSpace=wrap;rounded=0;" vertex="1" parent="DWBvzNKrQwj72fAjb29S-205">
          <mxGeometry x="14.49812621990884" y="14.429823633156957" width="19.36" height="19.51" as="geometry" />
        </mxCell>
        <mxCell id="DWBvzNKrQwj72fAjb29S-208" value="" style="group" vertex="1" connectable="0" parent="DWBvzNKrQwj72fAjb29S-211">
          <mxGeometry x="148.88093689004552" width="48.36521503188169" height="48.36521503188169" as="geometry" />
        </mxCell>
        <mxCell id="DWBvzNKrQwj72fAjb29S-185" value="" style="ellipse;whiteSpace=wrap;html=1;aspect=fixed;fillColor=#FFCCE6;" vertex="1" parent="DWBvzNKrQwj72fAjb29S-208">
          <mxGeometry width="48.36521503188169" height="48.36521503188169" as="geometry" />
        </mxCell>
        <mxCell id="DWBvzNKrQwj72fAjb29S-186" value="&lt;pre style=&quot;font-family: var(--ds-font-family-code); overflow: auto; padding: calc(var(--ds-md-zoom)*8px)calc(var(--ds-md-zoom)*12px); text-wrap: wrap; word-break: break-all; color: rgb(73, 73, 73); font-size: 12.573px; text-align: start; margin-top: 0px !important; margin-bottom: 0px !important;&quot;&gt;&lt;pre style=&quot;font-family: var(--ds-font-family-code); overflow: auto; padding: calc(var(--ds-md-zoom)*8px)calc(var(--ds-md-zoom)*12px); text-wrap: wrap; word-break: break-all; margin-top: 0px !important; margin-bottom: 0px !important;&quot;&gt;&lt;b&gt;8&lt;/b&gt;&lt;/pre&gt;&lt;/pre&gt;" style="text;strokeColor=none;align=center;fillColor=none;html=1;verticalAlign=middle;whiteSpace=wrap;rounded=0;" vertex="1" parent="DWBvzNKrQwj72fAjb29S-208">
          <mxGeometry x="15.05906310995448" y="14.86999999999989" width="18.24" height="18.62" as="geometry" />
        </mxCell>
        <mxCell id="DWBvzNKrQwj72fAjb29S-209" value="" style="group" vertex="1" connectable="0" parent="DWBvzNKrQwj72fAjb29S-211">
          <mxGeometry x="56.20039037085232" y="114.85008818342158" width="48.36521503188172" height="48.36521503188169" as="geometry" />
        </mxCell>
        <mxCell id="DWBvzNKrQwj72fAjb29S-175" value="" style="ellipse;whiteSpace=wrap;html=1;aspect=fixed;fillColor=#FFCCE6;" vertex="1" parent="DWBvzNKrQwj72fAjb29S-209">
          <mxGeometry width="48.36521503188169" height="48.36521503188169" as="geometry" />
        </mxCell>
        <mxCell id="DWBvzNKrQwj72fAjb29S-176" value="&lt;pre style=&quot;font-family: var(--ds-font-family-code); overflow: auto; padding: calc(var(--ds-md-zoom)*8px)calc(var(--ds-md-zoom)*12px); text-wrap: wrap; word-break: break-all; color: rgb(73, 73, 73); font-size: 12.573px; text-align: start; margin-top: 0px !important; margin-bottom: 0px !important;&quot;&gt;&lt;pre style=&quot;font-family: var(--ds-font-family-code); overflow: auto; padding: calc(var(--ds-md-zoom)*8px)calc(var(--ds-md-zoom)*12px); text-wrap: wrap; word-break: break-all; margin-top: 0px !important; margin-bottom: 0px !important;&quot;&gt;&lt;b&gt;3&lt;/b&gt;&lt;/pre&gt;&lt;/pre&gt;" style="text;strokeColor=none;align=center;fillColor=none;html=1;verticalAlign=middle;whiteSpace=wrap;rounded=0;" vertex="1" parent="DWBvzNKrQwj72fAjb29S-209">
          <mxGeometry x="18.719609629147698" y="16.99991181657856" width="10.92" height="14.36" as="geometry" />
        </mxCell>
        <mxCell id="DWBvzNKrQwj72fAjb29S-210" value="" style="group" vertex="1" connectable="0" parent="DWBvzNKrQwj72fAjb29S-211">
          <mxGeometry x="104.56070266753409" y="229.70017636684315" width="48.36521503188169" height="48.36521503188169" as="geometry" />
        </mxCell>
        <mxCell id="DWBvzNKrQwj72fAjb29S-194" value="" style="ellipse;whiteSpace=wrap;html=1;aspect=fixed;fillColor=#FFCCE6;" vertex="1" parent="DWBvzNKrQwj72fAjb29S-210">
          <mxGeometry width="48.36521503188169" height="48.36521503188169" as="geometry" />
        </mxCell>
        <mxCell id="DWBvzNKrQwj72fAjb29S-195" value="&lt;pre style=&quot;font-family: var(--ds-font-family-code); overflow: auto; padding: calc(var(--ds-md-zoom)*8px)calc(var(--ds-md-zoom)*12px); text-wrap: wrap; word-break: break-all; color: rgb(73, 73, 73); font-size: 12.573px; text-align: start; margin-top: 0px !important; margin-bottom: 0px !important;&quot;&gt;&lt;pre style=&quot;font-family: var(--ds-font-family-code); overflow: auto; padding: calc(var(--ds-md-zoom)*8px)calc(var(--ds-md-zoom)*12px); text-wrap: wrap; word-break: break-all; margin-top: 0px !important; margin-bottom: 0px !important;&quot;&gt;&lt;b&gt;7&lt;/b&gt;&lt;/pre&gt;&lt;/pre&gt;" style="text;strokeColor=none;align=center;fillColor=none;html=1;verticalAlign=middle;whiteSpace=wrap;rounded=0;" vertex="1" parent="DWBvzNKrQwj72fAjb29S-210">
          <mxGeometry x="15.439297332465912" y="18.06982363315683" width="17.48" height="12.23" as="geometry" />
        </mxCell>
        <mxCell id="DWBvzNKrQwj72fAjb29S-212" value="&lt;b&gt;图解删除 6（双子树）&lt;/b&gt;" style="text;strokeColor=none;align=center;fillColor=none;html=1;verticalAlign=middle;whiteSpace=wrap;rounded=0;" vertex="1" parent="1">
          <mxGeometry x="150" y="1800" width="120" height="20" as="geometry" />
        </mxCell>
        <mxCell id="DWBvzNKrQwj72fAjb29S-213" value="&lt;div&gt;步骤：&lt;/div&gt;&lt;div&gt;1. 找到6的右子树最小节点7&lt;/div&gt;&lt;div&gt;2. 用7替换6，并删除原7（叶子节点）&lt;/div&gt;" style="text;strokeColor=none;align=left;fillColor=none;html=1;verticalAlign=middle;whiteSpace=wrap;rounded=0;" vertex="1" parent="1">
          <mxGeometry x="135" y="1840" width="210" height="50" as="geometry" />
        </mxCell>
      </root>
    </mxGraphModel>
  </diagram>
</mxfile>
